<svg
  width="24"
  height="24"
  viewBox="0 0 24 24"
  fill="none"
  xmlns="http://www.w3.org/2000/svg"
>
  <path
    d="M12 21.35l-1.45-1.32C5.4 15.36 2 12.28 2 8.5 2 5.42 4.42 3 7.5 3c1.74 0 3.41.81 4.5 2.09C13.09 3.81 14.76 3 16.5 3 19.58 3 22 5.42 22 8.5c0 3.78-3.4 6.86-8.55 11.54L12 21.35z"
    fill="#ef4444"
    stroke="#000"
    stroke-width="1"
  />
  <path
    d="M12 18.85l-1.2-1.09C6.4 13.8 4 11.39 4 8.5 4 6.5 5.5 5 7.5 5c1.04 0 2.04.52 2.7 1.36L12 8.5l1.8-2.14C14.46 5.52 15.46 5 16.5 5 18.5 5 20 6.5 20 8.5c0 2.89-2.4 5.3-6.8 9.26L12 18.85z"
    fill="#ef4444"
    opacity="0.8"
  />
  <ellipse
    cx="9.5"
    cy="7.5"
    rx="1.5"
    ry="1"
    fill="white"
    opacity="0.6"
  />
</svg>
