<svg width="50" height="50" viewBox="0 0 50 50" xmlns="http://www.w3.org/2000/svg">
  <defs>
    <filter id="shadow" x="-20%" y="-20%" width="140%" height="140%">
      <feDropShadow dx="0" dy="2" stdDeviation="2" flood-color="#000" flood-opacity="0.4"/>
    </filter>
  </defs>

  <!-- Główne serce -->
  <path
    d="M25 44 L21 40 C10 30 4 24 4 16 C4 10 9 5 15 5 C19 5 23 7 25 11 C27 7 31 5 35 5 C41 5 46 10 46 16 C46 24 40 30 29 40 L25 44 Z"
    fill="#ef4444"
    stroke="#000"
    stroke-width="1"
    filter="url(#shadow)"
  />

  <!-- Wewnętrzne rozjaśnienie -->
  <path
    d="M25 38 L22 35 C13 27 8 22 8 16 C8 12 11 9 15 9 C18 9 21 10.5 22.8 13 L25 16 L27.2 13 C29 10.5 32 9 35 9 C39 9 42 12 42 16 C42 22 37 27 28 35 L25 38 Z"
    fill="#ef4444"
    opacity="0.8"
  />

  <!-- Małe białe rozbłyski -->
  <ellipse cx="18" cy="14" rx="4" ry="2.5" fill="white" opacity="0.4"/>
</svg>
